<svg width="16" height="16" viewBox="0 0 16 16" fill="none" xmlns="http://www.w3.org/2000/svg">
<path d="M7.99961 14.8333C7.45295 14.8333 6.90627 14.66 6.45294 14.32L2.97961 11.72C2.33295 11.2333 1.94629 10.46 1.94629 9.65334V1.17334H14.0529V9.65334C14.0529 10.46 13.6663 11.2333 13.0196 11.72L9.54628 14.32C9.09295 14.66 8.54628 14.8333 7.99961 14.8333ZM2.94629 2.16668V9.64668C2.94629 10.14 3.18628 10.6133 3.57961 10.9133L7.05294 13.5133C7.61294 13.9333 8.39294 13.9333 8.95294 13.5133L12.4263 10.9133C12.8196 10.6133 13.0596 10.14 13.0596 9.64668V2.16668H2.94629Z" fill="white"/>
<path d="M14.6663 2.16675H1.33301C1.05967 2.16675 0.833008 1.94008 0.833008 1.66675C0.833008 1.39341 1.05967 1.16675 1.33301 1.16675H14.6663C14.9397 1.16675 15.1663 1.39341 15.1663 1.66675C15.1663 1.94008 14.9397 2.16675 14.6663 2.16675Z" fill="white"/>
<path d="M10.6663 5.83325H5.33301C5.05967 5.83325 4.83301 5.60659 4.83301 5.33325C4.83301 5.05992 5.05967 4.83325 5.33301 4.83325H10.6663C10.9397 4.83325 11.1663 5.05992 11.1663 5.33325C11.1663 5.60659 10.9397 5.83325 10.6663 5.83325Z" fill="white"/>
<path d="M10.6663 9.16675H5.33301C5.05967 9.16675 4.83301 8.94008 4.83301 8.66675C4.83301 8.39341 5.05967 8.16675 5.33301 8.16675H10.6663C10.9397 8.16675 11.1663 8.39341 11.1663 8.66675C11.1663 8.94008 10.9397 9.16675 10.6663 9.16675Z" fill="white"/>
</svg>
